<svg
  id="AddressSvg"
  xmlns="http://www.w3.org/2000/svg"
  viewBox="0 0 23.9862 23.98595">
  <title>address-icon</title>
  <circle class="background" cx="11.99299" cy="11.99291" r="11.99304"/>
  <path
    class="foreground"
    d="M300.83558,127.39649l-5.30373-5.03793-5.01431,4.99783V130.755c0,1.8557,3.34272,1.76759,3.34272,1.76759l0.03223-3.27011h3.66414v3.27011c3.6528,0.05315,3.279-1.679,3.279-1.679v-3.44708Z"
    transform="translate(-283.65047 -114.45365)"/>
  <path
    class="foreground"
    d="M302.60194,125.384c-0.89437-.97018-5.89318-5.52229-5.89318-5.52229a1.853,1.853,0,0,0-2.31765,0c-1.10972,1.0167-5.29489,5.00028-5.29489,5.00028a1.36076,1.36076,0,0,0,.15482,2.23126l6.2663-6.128,6.52149,6.14863S303.49605,126.35519,302.60194,125.384Z"
    transform="translate(-283.65047 -114.45365)"/>
</svg>
