<svg
  id="Layer_1"
  data-name="Layer 1"
  xmlns="http://www.w3.org/2000/svg"
  viewBox="0 0 23.84584 23.84584">
  <title>angellist-icon</title>
  <g id="Facebook">
    <circle id="back" class="background" cx="11.92292" cy="11.92292" r="11.92292"/>
    <path
      class="foreground"
      d="M378.1466,129.19531a1.97466,1.97466,0,0,1,1.39261.83339,3.95478,3.95478,0,0,1,.40571,2.03959,6.32312,6.32312,0,0,1-1.66128,4.52323,5.5859,5.5859,0,0,1-4.24909,1.75979,5.49093,5.49093,0,0,1-1.97926-.36734,4.90183,4.90183,0,0,1-1.65028-1.02526,5.19391,5.19391,0,0,1-1.18427-1.52951,3.71232,3.71232,0,0,1-.39474-1.65031,2.30884,2.30884,0,0,1,.40568-1.45837,2.12586,2.12586,0,0,1,1.283-.70179,5.86865,5.86865,0,0,1-.24124-0.647,1.57328,1.57328,0,0,1-.07677-0.40568,1.86617,1.86617,0,0,1,1.50224-1.52421,1.3485,1.3485,0,0,1,.41668.0713,2.74056,2.74056,0,0,1,.50441.23574q-0.84458-2.39048-1.22813-3.68987a7.70011,7.70011,0,0,1-.38378-1.79282,1.58012,1.58012,0,0,1,.35088-1.0801,1.20373,1.20373,0,0,1,.954-0.40031q1.03057,0,2.60977,4.60546,0.27395,0.78952.41671,1.21717,0.12062-.3397.33991-0.965,1.579-4.56159,2.71944-4.56163a1.13372,1.13372,0,0,1,.89366.37831,1.47625,1.47625,0,0,1,.33444,1.01433,7.82792,7.82792,0,0,1-.36738,1.76542Q378.89206,127.12287,378.1466,129.19531Zm-7.85125,4.47389q0.15352,0.18662.42765,0.54828a1.916,1.916,0,0,0,1.3378.99786,0.58116,0.58116,0,0,0,.37281-0.1316,0.36236,0.36236,0,0,0,.16447-0.27414,1.36233,1.36233,0,0,0-.21931-0.54828,7.07592,7.07592,0,0,0-.60312-0.86626,6.51722,6.51722,0,0,0-.72919-0.817,0.82226,0.82226,0,0,0-.466-0.25767,0.90827,0.90827,0,0,0-.70729.41118,1.52292,1.52292,0,0,0-.32348.97043,2.69744,2.69744,0,0,0,.22481,1.00333,4.84,4.84,0,0,0,.65245,1.113,4.35188,4.35188,0,0,0,1.60644,1.33214,4.787,4.787,0,0,0,2.12179.466,4.63066,4.63066,0,0,0,3.5802-1.59531,5.73784,5.73784,0,0,0,1.442-3.99691,4.95817,4.95817,0,0,0-.10967-1.1678,1.118,1.118,0,0,0-.36188-0.63052,4.53035,4.53035,0,0,0-1.749-.66889,12.18214,12.18214,0,0,0-2.71394-.29607,0.91061,0.91061,0,0,0-.55922.13157,0.54447,0.54447,0,0,0-.1645.44958,1.13154,1.13154,0,0,0,.83339,1.0801,7.84586,7.84586,0,0,0,2.69748.33444h0.44961a0.30167,0.30167,0,0,1,.24671.11514,0.70749,0.70749,0,0,1,.1261.34544,2.59366,2.59366,0,0,1-.76759.40024,4.13027,4.13027,0,0,0-.88819.44408,3.93791,3.93791,0,0,0-1.05816,1.14587,2.446,2.446,0,0,0-.40024,1.25554,2.832,2.832,0,0,0,.17.87176,3.05426,3.05426,0,0,1,.17.63052v0.07677l-0.02193.09867a0.92338,0.92338,0,0,1-.76209-0.56472,3.06331,3.06331,0,0,1-.27961-1.42V134.5573a0.60741,0.60741,0,0,1-.17.10967,0.483,0.483,0,0,1-.18094.0329,1.01091,1.01091,0,0,1-.18644-0.01647,1.9109,1.9109,0,0,1-.19737-0.04933,1.938,1.938,0,0,1,.04933.23577,1.3589,1.3589,0,0,1,.01643.18094,0.91076,0.91076,0,0,1-.318.69629,1.08411,1.08411,0,0,1-.75662.29057,2.0823,2.0823,0,0,1-1.40357-.67439,1.88585,1.88585,0,0,1-.71272-1.32134,0.75994,0.75994,0,0,1,.0274-0.21384A0.36739,0.36739,0,0,1,370.29535,133.6692Zm3.28963,0.26317a0.45217,0.45217,0,0,0,.33991-0.17,0.53883,0.53883,0,0,0,.1535-0.36734,3.81212,3.81212,0,0,0-.30154-0.97046,9.731,9.731,0,0,0-.75112-1.49678,3.50336,3.50336,0,0,0-.647-0.82789,0.941,0.941,0,0,0-.60312-0.27961,0.76686,0.76686,0,0,0-.50991.29061,0.82257,0.82257,0,0,0-.27961.54278,1.96326,1.96326,0,0,0,.27414.78952,7.45824,7.45824,0,0,0,.73469,1.11846,6.10546,6.10546,0,0,0,.91013,1.00883A1.22761,1.22761,0,0,0,373.585,133.93237Zm1.07463-5.29628-1.18427-3.42123a10.26346,10.26346,0,0,0-.71272-1.70511,0.69126,0.69126,0,0,0-.54831-0.40024,0.45766,0.45766,0,0,0-.37281.17544,0.7257,0.7257,0,0,0-.14254.47151,7.12239,7.12239,0,0,0,.38381,1.75448q0.38378,1.25008,1.15137,3.27866a0.36576,0.36576,0,0,1,.18641-0.17,0.891,0.891,0,0,1,.329-0.04933q0.0658,0,.26317.011T374.65961,128.63609Zm1.23907,3.32253a6.74835,6.74835,0,0,1-.89366-0.09867,4.73515,4.73515,0,0,1-.806-0.21931q0.17519,0.35112.31254,0.70179a6.12166,6.12166,0,0,1,.22481.69082,5.45035,5.45035,0,0,1,.55375-0.59762A4.62647,4.62647,0,0,1,375.89867,131.95862Zm1.45841-2.94971q0.73446-1.99572,1.1459-3.29513a8.22983,8.22983,0,0,0,.41118-1.59544,0.78485,0.78485,0,0,0-.137-0.49345,0.45426,0.45426,0,0,0-.37831-0.17544,0.85532,0.85532,0,0,0-.625.50988,8.44967,8.44967,0,0,0-.70179,1.63935l-1.09656,3.169Z"
      transform="translate(-362.46255 -118.44572)"/>
  </g>
</svg>
