<svg id="Layer_1" data-name="Layer 1" xmlns="http://www.w3.org/2000/svg" viewBox="0 0 23.84584 23.84584"><defs><style>.cls-1{fill:#3a5a99;}.cls-2{fill:#fff;}</style></defs><title>facebook-icon</title><g id="Facebook"><circle id="back" class="cls-1" cx="11.92292" cy="11.92292" r="11.92292"/><path id="Facebook-2" data-name="Facebook" class="cls-2" d="M439.4298,123.84829H427.82854a0.71962,0.71962,0,0,0-.71972.71972v11.60126a0.71967,0.71967,0,0,0,.71972.71971h6.24563v-5.05h-1.69941v-1.96821h1.69941v-1.45134a2.37146,2.37146,0,0,1,2.53137-2.60158,13.92148,13.92148,0,0,1,1.51855.07759v1.76025l-1.0419.00045a0.81645,0.81645,0,0,0-.97552.95813v1.25649h1.94884L437.8019,131.839h-1.69521v5.05h3.32312a0.71967,0.71967,0,0,0,.71972-0.71971V124.568A0.71962,0.71962,0,0,0,439.4298,123.84829Z" transform="translate(-421.70626 -118.44572)"/></g></svg>