<svg
  id="Layer_1"
  data-name="Layer 1"
  xmlns="http://www.w3.org/2000/svg"
  viewBox="0 0 23.84584 23.84584">
  <title>github-icon</title>
  <g id="Github">
    <circle id="back" class="background" cx="11.92292" cy="11.92292" r="11.92292"/>
    <g id="Github-2" data-name="Github">
      <path
        class="foreground"
        d="M385.00019,120.00954a6.67757,6.67757,0,0,0-2.11075,13.0125,0.33593,0.33593,0,0,0,.45629-0.3213c0-.15917-0.0062-0.68514-0.00911-1.24311-1.8575.40389-2.24956-.78775-2.24956-0.78775a1.76757,1.76757,0,0,0-.74136-0.977c-0.60581-.41443.04585-0.40588,0.04585-0.40588a1.40367,1.40367,0,0,1,1.02336.68825,1.4214,1.4214,0,0,0,1.943.55488,1.42353,1.42353,0,0,1,.4239-0.89291c-1.48291-.16865-3.042-0.74118-3.042-3.29965a2.58373,2.58373,0,0,1,.688-1.79209,2.39862,2.39862,0,0,1,.06477-1.76709s0.56053-.17929,1.83639.6845a6.33327,6.33327,0,0,1,3.34386,0c1.27441-.86379,1.8344-0.6845,1.8344-0.6845a2.39733,2.39733,0,0,1,.0655,1.76709,2.57894,2.57894,0,0,1,.68713,1.79209c0,2.56466-1.562,3.129-3.04876,3.29456a1.59575,1.59575,0,0,1,.45283,1.23638c0,0.89327-.00764,1.61226-0.00764,1.8322a0.334,0.334,0,0,0,.45864.32039A6.67778,6.67778,0,0,0,385.00019,120.00954Z"
        transform="translate(-373.07727 -114.5986)"/>
      <path
        class="foreground"
        d="M380.85239,129.59594a0.10252,0.10252,0,0,1-.17449-0.07986,0.10236,0.10236,0,0,1,.17449.07986h0Zm-0.08223-.06094"
        transform="translate(-373.07727 -114.5986)"/>
      <path
        class="foreground"
        d="M381.12272,129.89775a0.123,0.123,0,1,1-.01891-0.1388,0.101,0.101,0,0,1,.01891.1388h0Zm-0.06368-.06838"
        transform="translate(-373.07727 -114.5986)"/>
      <path
        class="foreground"
        d="M381.386,130.28218a0.11763,0.11763,0,0,1-.14919-0.05766,0.11564,0.11564,0,0,1,.00091-0.159,0.13986,0.13986,0,0,1,.14827.21668h0Zm0,0"
        transform="translate(-373.07727 -114.5986)"/>
      <path
        class="foreground"
        d="M381.74657,130.65369a0.12508,0.12508,0,0,1-.17156-0.02566,0.10607,0.10607,0,1,1,.135-0.14482,0.12562,0.12562,0,0,1,.03657.17048h0Zm0,0"
        transform="translate(-373.07727 -114.5986)"/>
      <path
        class="foreground"
        d="M382.24415,130.86946a0.15455,0.15455,0,0,1-.27654-0.08314,0.15446,0.15446,0,0,1,.27654.08314h0Zm0,0"
        transform="translate(-373.07727 -114.5986)"/>
      <path
        class="foreground"
        d="M382.79066,130.90929a0.15318,0.15318,0,0,1-.28691.00473,0.12845,0.12845,0,0,1,.14246-0.10205,0.12664,0.12664,0,0,1,.14445.09732h0Zm0,0"
        transform="translate(-373.07727 -114.5986)"/>
      <path
        class="foreground"
        d="M383.29916,130.82288a0.15354,0.15354,0,1,1-.15975-0.07333,0.129,0.129,0,0,1,.15975.07333h0Zm0,0"
        transform="translate(-373.07727 -114.5986)"/>
    </g>
  </g>
</svg>
