<svg
	id="Layer_1"
	data-name="Layer 1"
	xmlns="http://www.w3.org/2000/svg"
	viewBox="0 0 69.8 69.7">
	<title>instagram-icon</title>
	<g id="Instagram_1_">
		<circle id="back_4_" class="background" cx="34.9" cy="34.9" r="34.9"/>
		<g>
			<path
				id="SVGID_1_"
				class='foreground'
				d="M29.1,34.9c0-3.2,2.6-5.8,5.8-5.8c3.2,0,5.8,2.6,5.8,5.8c0,3.2-2.6,5.8-5.8,5.8
				C31.7,40.7,29.1,38.1,29.1,34.9 M25.9,34.9c0,5,4,9,9,9c5,0,9-4,9-9s-4-9-9-9C30,25.9,25.9,29.9,25.9,34.9 M42.2,25.5
				c0,1.2,0.9,2.1,2.1,2.1c1.2,0,2.1-0.9,2.1-2.1c0-1.2-0.9-2.1-2.1-2.1C43.1,23.4,42.2,24.3,42.2,25.5 M27.8,49.1
				c-1.7-0.1-2.6-0.4-3.3-0.6c-0.8-0.3-1.4-0.7-2-1.3c-0.6-0.6-1-1.2-1.3-2c-0.2-0.6-0.5-1.5-0.6-3.3c-0.1-1.8-0.1-2.4-0.1-7.1
				c0-4.7,0-5.2,0.1-7.1c0.1-1.7,0.4-2.6,0.6-3.3c0.3-0.8,0.7-1.4,1.3-2c0.6-0.6,1.2-1,2-1.3c0.6-0.2,1.5-0.5,3.3-0.6
				c1.8-0.1,2.4-0.1,7.1-0.1c4.7,0,5.2,0,7.1,0.1c1.7,0.1,2.6,0.4,3.3,0.6c0.8,0.3,1.4,0.7,2,1.3c0.6,0.6,1,1.2,1.3,2
				c0.2,0.6,0.5,1.5,0.6,3.3c0.1,1.8,0.1,2.4,0.1,7.1c0,4.7,0,5.2-0.1,7.1c-0.1,1.7-0.4,2.6-0.6,3.3c-0.3,0.8-0.7,1.4-1.3,2
				c-0.6,0.6-1.2,1-2,1.3c-0.6,0.2-1.5,0.5-3.3,0.6c-1.8,0.1-2.4,0.1-7.1,0.1C30.2,49.2,29.7,49.2,27.8,49.1 M27.7,17.4
				c-1.9,0.1-3.1,0.4-4.3,0.8c-1.2,0.4-2.1,1-3.1,2c-1,1-1.6,2-2,3.1c-0.4,1.1-0.7,2.4-0.8,4.3c-0.1,1.9-0.1,2.5-0.1,7.2
				s0,5.4,0.1,7.2c0.1,1.9,0.4,3.1,0.8,4.3c0.4,1.2,1,2.1,2,3.1c1,1,1.9,1.6,3.1,2c1.1,0.4,2.4,0.7,4.3,0.8c1.9,0.1,2.5,0.1,7.2,0.1
				c4.8,0,5.4,0,7.2-0.1c1.9-0.1,3.1-0.4,4.3-0.8c1.2-0.4,2.1-1,3.1-2c1-1,1.6-2,2-3.1c0.4-1.1,0.7-2.4,0.8-4.3
				c0.1-1.9,0.1-2.5,0.1-7.2s0-5.4-0.1-7.2c-0.1-1.9-0.4-3.1-0.8-4.3c-0.4-1.2-1-2.1-2-3.1c-1-1-2-1.6-3.1-2
				c-1.1-0.4-2.4-0.7-4.3-0.8c-1.9-0.1-2.5-0.1-7.2-0.1C30.2,17.3,29.6,17.4,27.7,17.4"/>
		</g>
	</g>
</svg>
