<svg
  id="Layer_1"
  data-name="Layer 1"
  xmlns="http://www.w3.org/2000/svg"
  viewBox="0 0 23.98594 23.98607">
  <title>phone-icon</title>
  <circle class="background" cx="11.99291" cy="11.99294" r="11.993"/>
  <path
     class="foreground"
     d="M265.54485,129.79667c0.27074,0.42947.67657,0.42947,1.2632,0,0.40656,1.03084,2.25649,4.46806,2.25649,4.46806a3.24078,3.24078,0,0,1-2.91632-.71458,15.55749,15.55749,0,0,1-4.63492-6.40473,15.79709,15.79709,0,0,1-.942-5.94855c0.04516-1.93322.86816-2.48439,1.72525-2.7417l1.53377,4.85408a1.22939,1.22939,0,0,0-.62045,1.72576A11.17876,11.17876,0,0,0,265.54485,129.79667Z" transform="translate(-253.68898 -114.45359)"/><path class="cls-2" d="M262.973,118.28311a1.613,1.613,0,0,1,1.98514.85931c0.67705,1.33172,1.1731,3.394-.451,4.03834C264.05577,121.935,262.973,118.28311,262.973,118.28311Z" transform="translate(-253.68898 -114.45359)"/><path class="cls-2" d="M267.52891,129.51622l2.34766,4.40468s1.3535-.98837.81218-1.97629c-0.54144-.98814-1.17162-2.22461-1.17162-2.22461A1.39907,1.39907,0,0,0,267.52891,129.51622Z"
     transform="translate(-253.68898 -114.45359)"/>
</svg>
