<svg id="Layer_1" data-name="Layer 1" xmlns="http://www.w3.org/2000/svg" viewBox="0 0 23.84584 23.84584"><defs><style>.cls-1{fill:#55acee;}.cls-2{fill:#fff;}</style></defs><title>twitter-icon</title><g id="Twitter"><circle id="back" class="cls-1" cx="11.92292" cy="11.92292" r="11.92292"/><path id="Twitter-2" data-name="Twitter" class="cls-2" d="M410.64116,126.2272a5.47275,5.47275,0,0,1-1.57349.43136,2.748,2.748,0,0,0,1.20455-1.51566,5.48539,5.48539,0,0,1-1.73961.66478,2.74226,2.74226,0,0,0-4.66859,2.4988,7.77749,7.77749,0,0,1-5.64681-2.86249,2.74264,2.74264,0,0,0,.84779,3.65769,2.728,2.728,0,0,1-1.24086-.34275l-0.00026.03456a2.74145,2.74145,0,0,0,2.19769,2.68636,2.74688,2.74688,0,0,1-1.2373.04695,2.74283,2.74283,0,0,0,2.55929,1.90262,5.497,5.497,0,0,1-3.40252,1.17271,5.57216,5.57216,0,0,1-.65349-0.03821,7.79166,7.79166,0,0,0,11.99459-6.56418q0-.1782-0.008-0.35441A5.56406,5.56406,0,0,0,410.64116,126.2272Z" transform="translate(-392.04144 -118.44572)"/></g></svg>