<svg id="logo-wordmark" viewBox="0 0 182 29" xmlns="http://www.w3.org/2000/svg" fill-rule="evenodd" clip-rule="evenodd" stroke-linejoin="round" stroke-miterlimit="1.414"><path d="M10.235 11.952c4.021 1.303 8.856 3.085 8.856 8.344 0 4.957-4.398 8.42-9.302 8.42-4.208 0-9.594-2.598-9.594-8.88 0-.437.15-.79.582-.79h3.504c.418 0 .605.342.626.779.172 3.437 2.648 4.446 5.01 4.446 2.253 0 4.294-1.263 4.294-3.508 0-2.337-1.78-3.324-4.293-4.115-4.183-1.324-8.917-3.15-8.917-8.747 0-4.44 3.455-7.617 8.605-7.617 2.1 0 4.208.697 5.78 1.91 1.32 1.019 2.891 2.55 2.891 5.928 0 .435-.237.64-.669.64h-3.233c-.491 0-.776-.106-.776-.634 0-2.05-1.674-3.651-3.956-3.651-2.674 0-4.078 1.321-3.988 3.59.083 2.114 2.213 3.114 4.58 3.885zm31.137 16.764c-8.579 0-12.044-7.41-12.044-13.756 0-8.939 4.536-14.676 12.044-14.676 7.855 0 12.045 5.694 12.045 14.728 0 6.242-3.465 13.704-12.045 13.704zm0-4.588c4.5 0 6.982-3.72 6.982-9.118 0-4.637-1.969-10.138-6.982-10.138-5.412 0-7.018 5.646-7.018 10.088 0 5.341 2.495 9.168 7.018 9.168zM86.478.871c.432 0 .783.354.783.79v25.678c0 .435-.351.79-.783.79H82.8a.781.781 0 0 1-.64-.334 9925.754 9925.754 0 0 1-11.152-16.732c-.286-.45-.536-.15-.536.172V27.34c0 .435-.352.79-.784.79h-3.313a.793.793 0 0 1-.784-.79V1.661c0-.436.352-.79.784-.79h3.677c.254 0 .494.125.64.333 0 0 10.792 16.874 11.092 17.308.368.534.597.375.597-.392V1.66c0-.435.351-.789.784-.789h3.313zm21.444 0c4.434 0 7.842 1.152 10.13 3.424 2.307 2.293 3.477 5.726 3.477 10.205 0 4.04-1.197 7.434-3.461 9.815-2.374 2.495-5.882 3.815-10.146 3.815h-5.904a.792.792 0 0 1-.785-.79V1.66c0-.435.353-.789.785-.789h5.904zm8.618 13.63c0-6.17-2.739-9.043-8.618-9.043h-1.393c-.452 0-.415.48-.415.75v16.646c0 .482.085.687.513.687h1.295c5.638 0 8.618-3.127 8.618-9.04zM150.336.871c.432 0 .783.354.783.79v3.008c0 .435-.35.79-.783.79H138.94c-.455 0-.382.576-.382.872v5.183c0 .321.065.47.43.47h8.169c.432 0 .783.354.783.79v3.007c0 .436-.351.79-.783.79h-8.254c-.345 0-.345.298-.345.644v5.726c0 .395.102.6.467.6h11.312c.432 0 .783.355.783.79v3.008c0 .435-.35.79-.783.79h-15.875a.793.793 0 0 1-.784-.79V1.661c0-.436.352-.79.784-.79h15.875-.001zm26.74 15.894c4.471 3.273 4.156 7.414 4.222 10.344l.007.273a.705.705 0 0 1-.202.503.813.813 0 0 1-.58.244h-3.214a.729.729 0 0 1-.56-.218c-.195-.186-.213-.421-.215-.665-.001-.161.001-.313.003-.47.013-.679-.027-1.44-.29-3.424-.408-3.077-3.268-5.01-4.831-5.378h-2.3c-.517 0-.517.623-.517 1.018v8.347c0 .435-.352.79-.784.79h-3.312a.792.792 0 0 1-.785-.79V1.661c0-.436.353-.79.785-.79h7.78c5.784 0 9.522 3.272 9.522 8.336 0 4.351-2.837 6.566-4.729 7.558zm-.153-7.558c0-3.098-2.523-3.748-4.64-3.748h-3.093c-.59 0-.59.625-.59 1.07v5.8c0 .518 0 1.02.61 1.02h3.073c2.906 0 4.64-1.548 4.64-4.142z"/></svg>
